<svg width="24.000000" height="24.000000" viewBox="0 0 24 24" fill="none" xmlns="http://www.w3.org/2000/svg" xmlns:xlink="http://www.w3.org/1999/xlink">
	<desc>
			Created with Pixso.
	</desc>
	<defs/>
	<rect width="24.000000" height="24.000000" fill="#FFFFFF" fill-opacity="0"/>
	<path d="M13.82 19C13.53 19 13.24 18.87 13.04 18.62L8.22 12.62C7.92 12.25 7.92 11.72 8.23 11.36L13.23 5.35C13.58 4.93 14.21 4.87 14.64 5.23C15.06 5.58 15.12 6.21 14.76 6.64L10.29 12.01L14.6 17.37C14.95 17.8 14.88 18.43 14.45 18.77C14.27 18.92 14.04 19 13.82 19Z" fill="#151515" fill-opacity="1.000000" fill-rule="evenodd"/>
	<mask id="mask16_2" mask-type="alpha" maskUnits="userSpaceOnUse" x="8.000000" y="5.000488" width="6.999980" height="13.999496">
		<path d="M13.82 19C13.53 19 13.24 18.87 13.04 18.62L8.22 12.62C7.92 12.25 7.92 11.72 8.23 11.36L13.23 5.35C13.58 4.93 14.21 4.87 14.64 5.23C15.06 5.58 15.12 6.21 14.76 6.64L10.29 12.01L14.6 17.37C14.95 17.8 14.88 18.43 14.45 18.77C14.27 18.92 14.04 19 13.82 19Z" fill="#231F20" fill-opacity="1.000000" fill-rule="evenodd"/>
	</mask>
	<g mask="url(#mask16_2)">
		<rect width="24.000000" height="24.000000" fill="#FFFFFF" fill-opacity="0"/>
		<rect width="24.000000" height="24.000000" fill="#151515" fill-opacity="1.000000"/>
		<rect width="24.000000" height="24.000000" stroke="#979797" stroke-opacity="0" stroke-width="0.000000"/>
	</g>
</svg>
