<svg width="60.000000" height="39.000000" viewBox="0 0 60 39" fill="none" xmlns="http://www.w3.org/2000/svg" xmlns:xlink="http://www.w3.org/1999/xlink">
	<desc>
			Created with Pixso.
	</desc>
	<defs/>
	<path id="形状结合" d="M59.36 0C59.71 0 60 0.28 60 0.62L60 38.37C60 38.71 59.71 39 59.36 39L51.23 39C50.89 39 50.6 38.71 50.6 38.37L50.6 0.62C50.6 0.28 50.89 0 51.23 0L59.36 0ZM24.09 0C30.22 0 36.63 0.28 39.79 3.5C42.9 6.67 43.24 12.98 43.25 19.1L43.25 38.37C43.25 38.71 42.97 39 42.62 39L34.5 39C34.15 39 33.86 38.71 33.86 38.37L33.86 18.77C33.85 15.35 33.66 11.83 31.93 10.06C30.43 8.54 27.65 8.19 24.75 8.12L10.02 8.12C9.67 8.12 9.39 8.4 9.39 8.74L9.39 38.37C9.39 38.71 9.1 39 8.76 39L0.62 39C0.28 39 0 38.71 0 38.37L0 0.62C0 0.28 0.28 0 0.62 0L24.09 0ZM25.91 15.03C26.25 15.03 26.53 15.31 26.53 15.65L26.53 38.37C26.53 38.71 26.25 39 25.91 39L17.37 39C17.02 39 16.74 38.71 16.74 38.37L16.74 15.65C16.74 15.31 17.02 15.03 17.37 15.03L25.91 15.03Z" fill="#FF4C0D" fill-opacity="1.000000" fill-rule="evenodd"/>
</svg>
