<svg width="620.000000" height="530.000000" viewBox="0 0 620 530" fill="none" xmlns="http://www.w3.org/2000/svg" xmlns:xlink="http://www.w3.org/1999/xlink">
	<desc>
			Created with Pixso.
	</desc>
	<defs/>
	<mask id="mask2_233" mask-type="alpha" maskUnits="userSpaceOnUse" x="0.000000" y="0.000000" width="620.000000" height="530.000000">
		<path id="Rectangle 93" d="M0 0L620 0L620 530L114 530L57 338L0 338L0 0Z" fill="#C4C4C4" fill-opacity="1.000000" fill-rule="nonzero"/>
	</mask>
	<g mask="url(#mask2_233)">
		<path id="Path" d="M933.82 92.35C967.47 142.71 967.95 210.16 940.85 263.5C912.78 318.75 856.29 350.6 794.7 348.75C735.25 346.93 675.01 314.93 649.34 259.63C625.32 207.89 632.7 133.75 691.77 109.67C741.65 89.34 807.93 113.37 829.09 163.79C850.24 214.21 825.92 274.47 783.15 305.45C729.17 344.52 658.24 326.25 603.64 298.94C537.41 265.96 476.08 211.19 398.79 207.99C337.84 205.47 277.84 235.35 239.13 281.88C219.58 305.06 206.12 332.75 199.97 362.42C193.53 394.86 198.99 433.24 220.98 459.05C245.45 487.77 284.9 485.81 312.03 461.69C341.83 435.14 348.71 393.38 353.26 355.74C361.93 283.87 361.63 203.67 321.77 140.35C286.41 84.33 218.45 43.25 151.27 63.6C75.1 86.67 37.18 165.46 23.98 238.08C16.82 277.47 14.72 317.69 12.35 357.6C9.93 398.18 7.8 438.8 3.47 479.27C-4.81 555.94 -21.55 632.67 -61.5 699.57C-98.96 762.32 -155.75 813.84 -227.93 831.7C-295.11 848.42 -366.47 837.05 -430.17 812.37C-509.81 781.62 -580.32 731.58 -651.28 685.09L-878.88 536L-988.01 464.51C-990.35 462.97 -988.24 459.13 -985.89 460.64L-761.02 607.93C-687.87 655.86 -615.6 705.57 -540.89 751.05C-474.38 791.52 -402.25 826.53 -323.67 833.72C-288.87 836.91 -253.39 834.66 -219.71 824.86C-183.15 813.93 -149.66 794.57 -121.93 768.35C-0.48 655.08 -0.28 478.42 9.97 325.16C14.87 252.15 23.23 173.65 71.23 114.72C91.96 89.22 119.48 68.23 151.3 58.95C180.24 50.78 211.06 52.53 238.87 63.91C299.35 87.98 338.72 144.8 353.47 206.56C361.67 241.11 363.28 276.94 361.48 312.26C359.63 348.34 356.71 387.11 343.86 421.14C332.92 450.11 310.57 477.22 278.96 483.85C250.71 489.75 224.85 475.24 210.11 451.47C178 399.69 195.13 332.92 229.51 287.01C263.62 241.5 317.06 209.98 373.82 204.32C446.07 197.16 507.96 238.55 567.18 273.68C623.25 306.97 696.92 342.86 762.06 312.75C814.1 288.7 847.44 222.36 825.81 167.37C803.99 111.79 724.03 87.95 675.65 123.66C617.65 166.43 638.26 256.67 683.81 299.74C729.35 342.81 801.49 356.41 859.84 333.26C920.55 309.14 956.02 245.38 955.86 181.63C956.01 150.72 947.02 120.47 930.02 94.67C928.44 92.29 932.25 90.09 933.82 92.35Z" fill="#FF4C0D" fill-opacity="1.000000" fill-rule="nonzero"/>
	</g>
</svg>
