<svg width="1755.000000" height="1133.000000" viewBox="0 0 1755 1133" fill="none" xmlns="http://www.w3.org/2000/svg" xmlns:xlink="http://www.w3.org/1999/xlink">
	<desc>
			Created with Pixso.
	</desc>
	<defs/>
	<path id="Path" d="M64.14 -0.45C15.65 35.83 -7.26 99.28 0.53 158.59C8.6 220.04 51.26 268.87 109.96 287.64C166.62 305.72 234.07 295.61 276.7 252C316.57 211.21 334.3 138.85 286.62 96.48C246.35 60.7 175.85 61.29 139.11 101.79C102.38 142.28 105.25 207.21 135.27 250.66C173.15 305.47 246.12 311.86 306.7 304.29C380.13 295.25 456.19 264.02 530.15 286.74C588.45 304.65 635.08 352.81 656.09 409.58C666.8 437.94 670.28 468.53 666.2 498.56C661.47 531.29 643.55 565.66 614.21 582.68C581.58 601.61 545.03 586.63 527.48 554.85C508.22 519.89 515.64 478.22 523.88 441.22C539.63 370.56 566.62 295.03 625.29 248.6C677.28 207.56 755.05 191.45 811.62 233C875.75 280.12 885.28 367.04 873.55 439.91C867.18 479.43 855.77 518.06 844.72 556.48C833.48 595.55 821.97 634.57 812.58 674.17C794.86 749.22 785.1 827.15 800.49 903.52C814.92 975.17 851.32 1042.66 913.43 1083.53C971.21 1121.67 1042.28 1134.71 1110.56 1132.65C1195.91 1130.17 1279.06 1106.46 1361.44 1086.26L1625.69 1021.46L1752.4 990.37C1755.13 989.7 1754.42 985.38 1751.7 986.02L1490.61 1050.04C1405.68 1070.88 1320.98 1093.68 1235.4 1111.68C1159.19 1127.71 1079.53 1136.69 1003.04 1117.31C969.16 1108.74 936.45 1094.81 907.95 1074.35C877.13 1051.87 851.99 1022.47 834.58 988.5C757.77 841.26 816.4 674.62 857.76 526.69C877.45 456.21 895.7 379.41 870.07 307.85C859.01 276.91 840.05 247.95 813.13 228.6C788.57 211.27 758.92 202.66 728.91 204.13C663.87 206.68 607.82 247.15 573.35 300.48C554.12 330.33 540.67 363.58 530.6 397.48C520.33 432.12 510.18 469.65 510.96 506.01C511.64 536.97 523.68 569.98 551.29 586.76C575.96 601.73 605.17 596.66 626.99 579.15C674.51 541.01 680.59 472.35 663.45 417.62C646.44 363.34 606.55 315.83 554.91 291.59C489.17 260.78 417.03 279.2 349.49 292.61C285.53 305.33 204.12 314.65 152.72 264.57C111.65 224.56 102.31 150.91 141.01 106.26C180.09 61.11 263.43 65.25 297.16 115.03C337.61 174.68 288.13 252.91 230.84 278.35C173.55 303.8 101 292.6 53.69 251.35C4.47 208.39 -7.74 136.45 13.64 76.39C23.79 47.2 42.34 21.67 66.95 3C69.24 1.29 66.38 -2.05 64.14 -0.45Z" fill="#FF4C0D" fill-opacity="1.000000" fill-rule="nonzero"/>
</svg>
