<svg width="1148.000000" height="1467.000000" viewBox="0 0 1148 1467" fill="none" xmlns="http://www.w3.org/2000/svg" xmlns:xlink="http://www.w3.org/1999/xlink">
	<desc>
			Created with Pixso.
	</desc>
	<defs/>
	<path id="Path" d="M119.02 1466.44C64.88 1454.74 21.67 1410.72 5.56 1358.43C-11.13 1304.27 5.73 1247.42 47.39 1209.46C87.61 1172.85 147.55 1155.56 199.59 1175.59C248.28 1194.31 290.57 1247.73 267.07 1301.12C247.22 1346.2 188.38 1372.56 142.41 1352.88C96.45 1333.21 74.11 1278.13 82.52 1230.56C93.14 1170.57 151.37 1137.47 204.62 1120.68C269.11 1100.25 344.25 1097.24 397.08 1050.18C438.74 1013.08 459.16 955.28 455.01 900.08C453.11 872.42 444.35 845.67 429.53 822.25C413.12 796.84 385.13 775.09 354.26 772.12C319.92 768.8 295.24 795.18 292.76 828.28C290.06 864.68 312.09 896.5 333.03 924.13C373.04 976.88 424.25 1029.4 490.71 1045.65C549.57 1059.98 620.36 1043.76 651.57 987.65C686.95 924.06 661.77 848.16 624.26 792.04C603.91 761.61 579.71 733.84 555.89 706.1C531.67 677.9 507.24 649.84 484.34 620.5C441.03 564.85 403.23 503.78 386.94 434.41C371.65 369.35 376.21 299.37 412.28 241.74C445.8 188.02 499.92 150.12 557.48 125.82C629.38 95.38 707.53 83.42 783.73 68.85L1028.11 22.08L1145.3 -0.34C1147.81 -0.82 1148.88 3.05 1146.37 3.55L904.92 49.76C826.36 64.78 747.26 78.09 669.24 95.7C599.79 111.41 530.13 134.27 473.92 179.52C449.02 199.55 427.13 223.6 411.23 251.46C394.16 281.89 384.46 315.91 382.92 350.78C375.14 502.45 487.35 618.67 578.08 725.9C621.29 777 665.72 833.91 671.66 903.16C674.25 933.1 669.51 964.4 654.5 990.73C640.68 1014.51 619.31 1032.96 593.8 1043.16C538.75 1065.81 476.74 1053.51 427.77 1022.31C400.41 1004.81 376.57 982.28 355.28 957.93C333.55 933.04 310.82 905.7 297.62 875.18C286.39 849.18 283.83 817.15 300.39 792.69C315.2 770.84 341.42 763.93 366.23 770.18C420.26 783.79 451.47 838.56 458.07 890.59C464.6 942.19 449.52 996.89 415.83 1036.72C372.9 1087.37 305.9 1099.53 244.65 1114.1C186.63 1127.89 115.39 1151.15 91.73 1212.37C72.82 1261.26 93.1 1326.06 142.29 1348.44C191.97 1371.09 259.69 1335.91 268.77 1281.68C279.68 1216.68 208.75 1170.49 151.43 1171.15C94.11 1171.81 38.05 1208.75 14.43 1261.06C-10.13 1315.53 7.11 1379.99 47.76 1421.78C67.32 1442.19 92.47 1456.35 120.04 1462.5C122.6 1463.05 121.49 1466.92 119.02 1466.44Z" fill="#FF4C0D" fill-opacity="1.000000" fill-rule="nonzero"/>
</svg>
