<svg width="1755.000000" height="1133.000000" viewBox="0 0 1755 1133" fill="none" xmlns="http://www.w3.org/2000/svg" xmlns:xlink="http://www.w3.org/1999/xlink">
	<desc>
			Created with Pixso.
	</desc>
	<defs/>
	<path id="Path" d="M1689.76 -0.45C1738.26 35.83 1761.17 99.28 1753.38 158.59C1745.3 220.04 1702.64 268.87 1643.95 287.64C1587.28 305.72 1519.83 295.61 1477.2 252C1437.33 211.21 1419.61 138.85 1467.29 96.48C1507.55 60.7 1578.06 61.29 1614.79 101.79C1651.53 142.28 1648.65 207.21 1618.64 250.66C1580.75 305.47 1507.78 311.86 1447.21 304.29C1373.78 295.25 1297.71 264.02 1223.76 286.74C1165.44 304.65 1118.82 352.81 1097.81 409.58C1087.1 437.94 1083.63 468.53 1087.69 498.56C1092.43 531.29 1110.36 565.66 1139.68 582.68C1172.31 601.61 1208.87 586.63 1226.42 554.85C1245.68 519.89 1238.27 478.22 1230.03 441.22C1214.27 370.56 1187.28 295.03 1128.61 248.6C1076.62 207.56 998.85 191.45 942.28 233C878.15 280.12 868.62 367.04 880.35 439.91C886.72 479.43 898.13 518.06 909.18 556.48C920.42 595.55 931.93 634.57 941.32 674.17C959.04 749.22 968.8 827.15 953.41 903.52C938.98 975.17 902.58 1042.66 840.47 1083.53C782.69 1121.67 711.62 1134.71 643.34 1132.65C558 1130.17 474.85 1106.46 392.46 1086.26L128.21 1021.46L1.5 990.37C-1.22 989.7 -0.51 985.38 2.21 986.02L263.29 1050.04C348.22 1070.88 432.93 1093.68 518.51 1111.68C594.7 1127.71 674.37 1136.69 750.86 1117.31C784.74 1108.74 817.45 1094.81 845.95 1074.35C876.78 1051.87 901.91 1022.47 919.32 988.5C996.13 841.26 937.5 674.62 896.14 526.69C876.45 456.21 858.2 379.41 883.83 307.85C894.89 276.91 913.85 247.95 940.77 228.6C965.33 211.27 994.98 202.66 1024.99 204.13C1090.04 206.68 1146.07 247.15 1180.55 300.48C1199.79 330.33 1213.23 363.58 1223.3 397.48C1233.56 432.12 1243.72 469.65 1242.93 506.01C1242.27 536.97 1230.22 569.98 1202.62 586.76C1177.94 601.73 1148.73 596.66 1126.92 579.15C1079.4 541.01 1073.31 472.35 1090.44 417.62C1107.46 363.34 1147.36 315.83 1198.99 291.59C1264.73 260.78 1336.88 279.2 1404.41 292.61C1468.37 305.33 1549.79 314.65 1601.19 264.57C1642.25 224.56 1651.6 150.91 1612.89 106.26C1573.81 61.11 1490.47 65.25 1456.74 115.03C1416.3 174.68 1465.78 252.91 1523.07 278.35C1580.35 303.8 1652.9 292.6 1700.22 251.35C1749.43 208.39 1761.65 136.45 1740.26 76.39C1730.12 47.2 1711.57 21.67 1686.95 3C1684.66 1.29 1687.53 -2.05 1689.76 -0.45Z" fill="#FF4C0D" fill-opacity="1.000000" fill-rule="nonzero"/>
</svg>
