<svg width="1522.000000" height="945.000000" viewBox="0 0 1522 945" fill="none" xmlns="http://www.w3.org/2000/svg" xmlns:xlink="http://www.w3.org/1999/xlink">
	<desc>
			Created with Pixso.
	</desc>
	<defs/>
	<path id="Path" d="M1521.8 92.36C1493.92 27.72 1420.72 -13.07 1351.26 3.82C1317.47 12.07 1287.6 31.83 1266.79 59.71C1246.37 87.83 1237.61 122.75 1242.34 157.18C1246.71 190.36 1262.61 222.47 1288.4 244.16C1312.13 264.13 1345.87 274.36 1376.48 267.45C1408.22 260.21 1428.77 233.07 1430.2 201C1431.78 165.82 1414.3 131.71 1390.06 107.29C1364.51 81.68 1329.2 65.4 1292.71 72.09C1256.21 78.79 1232.41 107.31 1226.96 143.28C1220.51 185.72 1237.24 226.08 1244.84 267.12C1251.43 303.09 1248.17 340.17 1235.39 374.44C1211.05 440.7 1154.34 496.31 1084.99 512.99C1047.05 522.11 1002.77 520.17 970.35 496.35C940.84 474.67 928.36 435.69 935.54 400.3C942.8 364.56 970.17 338.27 1005.66 330.84C1040.84 323.48 1079.02 335.26 1100.43 364.91C1120.98 393.31 1124.65 432.11 1113.4 464.88C1100.98 500.8 1069.93 527.08 1034.81 539.63C955.27 567.79 873.67 524.93 822.8 464.07C769.52 400.34 743.82 319.48 696.69 251.78C656.04 193.37 589.98 136.72 514.32 141.44C439.39 146.04 387 210.65 363.94 277.02C334.54 361.57 339.26 453.68 313.92 539.28C291.18 616.11 239.82 692.95 156.77 711.14C119.01 719.78 79.38 710.89 48.91 686.95C20.66 664.74 0.68 630.01 4.46 593.25C8.35 555.2 36.5 522.7 70.7 507.46C111.44 489.33 160.22 495.27 199.16 515.22C261.85 547.39 301.64 617.28 301.64 687.3C301.48 769.96 242.27 836.47 176.81 879.59C140.47 903.51 101.14 922.3 61.89 940.92C59.35 942.12 61.56 945.89 64.1 944.8C140.78 908.28 221.59 869.09 270.57 796.42C291.18 765.91 304.55 730.61 305.89 693.53C306.81 659.64 299.16 626.07 283.65 595.92C250.55 530.79 180.24 484.03 105.49 493.56C69.63 498.12 36.5 517.38 16.55 547.92C-2.28 576.24 -5.25 612.26 8.67 643.29C22.7 674.55 50.76 698.87 82.56 710.87C116.31 723.63 153.72 720.05 186.57 706.17C262.23 674.18 303.75 598.76 323.04 522.5C333.94 479.46 338.83 435.34 344.55 391.39C350.57 345.08 357.92 297.77 377.38 254.91C393.23 219.97 417.6 187.64 450.27 166.97C483.77 145.77 524.78 140.05 562.8 151.28C643.34 174.58 693.78 248.15 730.99 318.24C769.08 389.95 803.63 468.03 872.62 515.83C904.5 537.92 942.47 552.71 981.62 552.94C1017.09 553.18 1053.04 541.61 1080.56 518.95C1107.09 497.34 1122.98 465.31 1124.13 431.11C1125.18 399.46 1113.59 366.58 1088.89 345.94C1064.19 325.3 1029.19 319.73 998.6 328.02C967.18 336.54 942.33 359.82 933.25 391.25C924.44 421.71 930.05 456.65 949.45 481.95C972.17 511.59 1010.84 522.93 1046.89 522.27C1116.46 520.97 1179.73 478.73 1216.77 421.32C1235.44 392.65 1247.31 360.06 1251.42 326.08C1253.38 308.87 1253.06 291.49 1250.49 274.36C1246.93 250.78 1239.69 227.96 1234.75 204.67C1226.35 165.05 1225.68 114.09 1263.26 88.54C1299.54 63.84 1346.68 75.36 1378.11 102.13C1407.21 127.02 1429.31 165.71 1425.55 205.12C1423.76 223.71 1414.94 241.4 1399.57 252.43C1385.31 262.66 1367.38 266.01 1350.1 264.83C1270.44 259.01 1228.32 166.17 1252.41 96.05C1265.14 59.09 1295.57 29.54 1331.47 14.75C1367.52 -0.07 1408.14 1.01 1443.34 17.74C1476.72 33.44 1503.26 60.74 1518.02 94.56C1519.14 97.14 1522.9 94.91 1521.8 92.36Z" fill="#FF4C0D" fill-opacity="1.000000" fill-rule="nonzero"/>
</svg>
