<svg width="135.000000" height="40.000000" viewBox="0 0 135 40" fill="none" xmlns="http://www.w3.org/2000/svg" xmlns:xlink="http://www.w3.org/1999/xlink">
	<desc>
			Created with Pixso.
	</desc>
	<defs>
		<clipPath id="clip2_242">
			<rect id="Store Name=Google Play, Badge Color Type=Black, Language=EN" width="135.000000" height="40.000000" transform="translate(-0.335938 0.000000)" fill="white" fill-opacity="0"/>
		</clipPath>
		<linearGradient x1="21.373491" y1="8.706540" x2="4.660042" y2="25.489017" id="paint_linear_12_241_0" gradientUnits="userSpaceOnUse">
			<stop stop-color="#00A0FF"/>
			<stop offset="0.006570" stop-color="#00A1FF"/>
			<stop offset="0.260100" stop-color="#00BEFF"/>
			<stop offset="0.512200" stop-color="#00D2FF"/>
			<stop offset="0.760400" stop-color="#00DFFF"/>
			<stop offset="1.000000" stop-color="#00E3FF"/>
		</linearGradient>
		<linearGradient x1="33.359573" y1="19.999990" x2="9.261835" y2="19.999990" id="paint_linear_12_242_0" gradientUnits="userSpaceOnUse">
			<stop stop-color="#FFE000"/>
			<stop offset="0.408700" stop-color="#FFBD00"/>
			<stop offset="0.775400" stop-color="#FFA500"/>
			<stop offset="1.000000" stop-color="#FF9C00"/>
		</linearGradient>
		<linearGradient x1="24.388680" y1="22.297344" x2="1.723785" y2="45.055359" id="paint_linear_12_243_0" gradientUnits="userSpaceOnUse">
			<stop stop-color="#FF3A44"/>
			<stop offset="1.000000" stop-color="#C31162"/>
		</linearGradient>
		<linearGradient x1="6.928896" y1="0.178681" x2="17.049603" y2="10.341261" id="paint_linear_12_244_0" gradientUnits="userSpaceOnUse">
			<stop stop-color="#32A071"/>
			<stop offset="0.068500" stop-color="#2DA771"/>
			<stop offset="0.476200" stop-color="#15CF74"/>
			<stop offset="0.800900" stop-color="#06E775"/>
			<stop offset="1.000000" stop-color="#00F076"/>
		</linearGradient>
	</defs>
	<rect id="Store Name=Google Play, Badge Color Type=Black, Language=EN" width="135.000000" height="40.000000" transform="translate(-0.335938 0.000000)" fill="#FFFFFF" fill-opacity="0"/>
	<g clip-path="url(#clip2_242)">
		<path id="Vector" d="M129.66 40L4.66 40C1.9 40 -0.34 37.74 -0.34 35L-0.34 5C-0.34 2.24 1.9 0 4.66 0L129.66 0C132.41 0 134.66 2.24 134.66 5L134.66 35C134.66 37.74 132.41 40 129.66 40Z" fill="#F1F1F1" fill-opacity="1.000000" fill-rule="evenodd"/>
		<path id="Vector" d="M129.66 0.8C131.97 0.8 133.86 2.68 133.86 5L133.86 35C133.86 37.31 131.98 39.19 129.66 39.19L4.66 39.19C2.35 39.19 0.46 37.31 0.46 35L0.46 5C0.46 2.68 2.34 0.8 4.66 0.8L129.66 0.8ZM129.66 0L4.66 0C1.9 0 -0.34 2.25 -0.34 5L-0.34 35C-0.34 37.75 1.9 40 4.66 40L129.66 40C132.41 40 134.66 37.75 134.66 35L134.66 5C134.66 2.25 132.41 0 129.66 0Z" fill="#F1F1F1" fill-opacity="1.000000" fill-rule="evenodd"/>
		<path id="Vector" d="M70.78 13.23C69.88 13.23 69.12 12.91 68.51 12.29C67.92 11.68 67.59 10.85 67.6 9.99C67.6 9.08 67.91 8.31 68.51 7.7C69.11 7.08 69.87 6.76 70.78 6.76C71.67 6.76 72.43 7.08 73.04 7.7C73.64 8.33 73.95 9.1 73.95 9.99C73.94 10.91 73.63 11.68 73.04 12.28C72.44 12.91 71.68 13.23 70.78 13.23ZM43.95 13.23C43.07 13.23 42.31 12.92 41.68 12.3C41.06 11.69 40.74 10.91 40.74 10C40.74 9.08 41.06 8.3 41.68 7.69C42.29 7.07 43.06 6.76 43.95 6.76C44.39 6.76 44.81 6.85 45.22 7.03C45.62 7.2 45.95 7.43 46.19 7.72L46.25 7.79L45.57 8.46L45.51 8.37C45.13 7.92 44.62 7.7 43.94 7.7C43.34 7.7 42.82 7.91 42.39 8.34C41.95 8.76 41.73 9.32 41.73 10C41.73 10.67 41.95 11.23 42.39 11.66C42.82 12.08 43.34 12.3 43.94 12.3C44.58 12.3 45.12 12.08 45.54 11.66C45.79 11.41 45.94 11.06 46 10.62L43.84 10.62L43.84 9.69L46.93 9.69L46.94 9.77C46.96 9.93 46.98 10.09 46.98 10.24C46.98 11.1 46.72 11.8 46.21 12.31C45.63 12.92 44.87 13.23 43.95 13.23ZM79.62 13.09L78.67 13.09L75.75 8.41L75.78 9.26L75.78 13.09L74.83 13.09L74.83 6.9L75.91 6.9L75.94 6.94L78.68 11.35L78.66 10.51L78.66 6.9L79.62 6.9L79.62 13.09ZM63.63 13.09L62.67 13.09L62.67 7.83L61 7.83L61 6.9L65.3 6.9L65.3 7.83L63.63 7.83L63.63 13.09L63.63 13.09ZM60.21 13.09L59.25 13.09L59.25 6.9L60.21 6.9L60.21 13.09ZM54.81 13.09L53.85 13.09L53.85 7.83L52.18 7.83L52.18 6.9L56.48 6.9L56.48 7.83L54.81 7.83L54.81 13.09ZM51.57 13.08L47.88 13.08L47.88 6.9L51.57 6.9L51.57 7.83L48.85 7.83L48.85 9.53L51.3 9.53L51.3 10.45L48.85 10.45L48.85 12.15L51.57 12.15L51.57 13.08ZM69.22 11.65C69.65 12.08 70.17 12.29 70.78 12.29C71.4 12.29 71.91 12.08 72.33 11.65C72.76 11.22 72.97 10.67 72.97 10C72.97 9.32 72.76 8.77 72.34 8.34C71.91 7.91 71.38 7.7 70.78 7.7C70.16 7.7 69.65 7.91 69.23 8.34C68.8 8.77 68.59 9.32 68.59 10C68.59 10.67 68.8 11.22 69.22 11.65Z" fill="#000000" fill-opacity="1.000000" fill-rule="nonzero"/>
		<path id="Vector" d="M67.51 21.75C65.16 21.75 63.26 23.54 63.26 26C63.26 28.45 65.18 30.26 67.51 30.26C69.86 30.26 71.76 28.46 71.76 26C71.76 23.54 69.86 21.75 67.51 21.75ZM67.51 28.57C66.23 28.57 65.12 27.51 65.12 25.99C65.12 24.46 66.23 23.42 67.51 23.42C68.8 23.42 69.9 24.46 69.9 25.99C69.9 27.52 68.8 28.57 67.51 28.57ZM58.24 21.75C55.89 21.75 53.99 23.54 53.99 26C53.99 28.45 55.91 30.26 58.24 30.26C60.59 30.26 62.49 28.46 62.49 26C62.49 23.54 60.59 21.75 58.24 21.75ZM58.24 28.57C56.96 28.57 55.85 27.51 55.85 25.99C55.85 24.46 56.96 23.42 58.24 23.42C59.52 23.42 60.63 24.46 60.63 25.99C60.63 27.52 59.52 28.57 58.24 28.57ZM47.21 23.05L47.21 24.85L51.51 24.85C51.38 25.86 51.05 26.61 50.54 27.12C49.91 27.75 48.93 28.44 47.22 28.44C44.57 28.44 42.5 26.29 42.5 23.64C42.5 20.98 44.57 18.84 47.22 18.84C48.65 18.84 49.69 19.4 50.46 20.13L51.73 18.85C50.66 17.82 49.23 17.03 47.23 17.03C43.6 17.03 40.56 19.99 40.56 23.63C40.56 27.27 43.6 30.23 47.23 30.23C49.19 30.23 50.66 29.59 51.82 28.37C53.01 27.18 53.38 25.51 53.38 24.15C53.38 23.73 53.35 23.35 53.28 23.03L47.21 23.03C47.21 23.03 47.21 23.05 47.21 23.05ZM92.33 24.45C91.98 23.5 90.9 21.74 88.7 21.74C86.52 21.74 84.71 23.46 84.71 25.99C84.71 28.38 86.5 30.25 88.91 30.25C90.85 30.25 91.98 29.06 92.44 28.36L91.01 27.39C90.53 28.1 89.87 28.57 88.92 28.57C87.97 28.57 87.31 28.14 86.87 27.28L92.53 24.93C92.53 24.93 92.33 24.45 92.33 24.45ZM86.56 25.87C86.51 24.23 87.83 23.39 88.77 23.39C89.51 23.39 90.13 23.76 90.34 24.29L86.56 25.87ZM81.95 29.99L83.81 29.99L83.81 17.5L81.95 17.5L81.95 29.99ZM78.9 22.7L78.83 22.7C78.41 22.19 77.61 21.74 76.6 21.74C74.48 21.74 72.54 23.61 72.54 26.01C72.54 28.4 74.47 30.24 76.6 30.24C77.6 30.24 78.41 29.79 78.83 29.27L78.9 29.27L78.9 29.89C78.9 31.51 78.03 32.38 76.64 32.38C75.5 32.38 74.79 31.56 74.51 30.87L72.89 31.55C73.35 32.67 74.59 34.06 76.64 34.06C78.82 34.06 80.67 32.77 80.67 29.63L80.67 21.99L78.91 21.99L78.91 22.7C78.91 22.7 78.9 22.7 78.9 22.7ZM76.76 28.57C75.48 28.57 74.41 27.5 74.41 26.01C74.41 24.51 75.48 23.42 76.76 23.42C78.03 23.42 79.02 24.52 79.02 26.01C79.03 27.5 78.04 28.57 76.76 28.57ZM101.04 17.5L96.59 17.5L96.59 29.99L98.45 29.99L98.45 25.26L101.04 25.26C103.1 25.26 105.13 23.76 105.13 21.38C105.13 19 103.11 17.5 101.04 17.5ZM101.1 23.52L98.45 23.52L98.45 19.23L101.1 19.23C102.49 19.23 103.28 20.38 103.28 21.37C103.28 22.35 102.48 23.52 101.1 23.52ZM112.58 21.73C111.23 21.73 109.84 22.33 109.26 23.64L110.91 24.33C111.27 23.64 111.92 23.4 112.61 23.4C113.57 23.4 114.54 23.98 114.57 25.01L114.57 25.15C114.23 24.96 113.5 24.67 112.63 24.67C110.85 24.67 109.04 25.65 109.04 27.48C109.04 29.16 110.5 30.23 112.13 30.23C113.38 30.23 114.07 29.67 114.5 29.01L114.56 29.01L114.56 29.98L116.36 29.98L116.36 25.19C116.36 22.96 114.71 21.73 112.58 21.73ZM112.35 28.57C111.74 28.57 110.89 28.27 110.89 27.51C110.89 26.54 111.95 26.17 112.86 26.17C113.68 26.17 114.07 26.35 114.55 26.59C114.42 27.72 113.47 28.56 112.35 28.57ZM122.9 21.99L120.76 27.42L120.69 27.42L118.48 21.99L116.48 21.99L119.8 29.57L117.91 33.79L119.85 33.79L124.95 21.99L122.9 21.99ZM106.15 29.99L108.01 29.99L108.01 17.5L106.15 17.5L106.15 29.99Z" fill="#000000" fill-opacity="1.000000" fill-rule="evenodd"/>
		<path id="Vector" d="M10.05 7.53C9.76 7.84 9.6 8.32 9.6 8.94L9.6 31.05C9.6 31.68 9.76 32.15 10.06 32.45L10.14 32.52L22.48 20.13L22.48 19.85L10.13 7.46L10.05 7.53Z" fill="url(#paint_linear_12_241_0)" fill-opacity="1.000000" fill-rule="evenodd"/>
		<path id="Vector" d="M26.58 24.27L22.47 20.14L22.47 19.85L26.58 15.72L26.67 15.77L31.54 18.55C32.93 19.34 32.93 20.64 31.54 21.44L26.67 24.22L26.58 24.27Z" fill="url(#paint_linear_12_242_0)" fill-opacity="1.000000" fill-rule="evenodd"/>
		<path id="Vector" d="M26.67 24.22L22.47 20L10.05 32.46C10.5 32.95 11.27 33 12.12 32.53L26.67 24.22Z" fill="url(#paint_linear_12_243_0)" fill-opacity="1.000000" fill-rule="evenodd"/>
		<path id="Vector" d="M26.67 15.77L12.12 7.47C11.27 6.98 10.5 7.05 10.05 7.54L22.47 19.99L26.67 15.77Z" fill="url(#paint_linear_12_244_0)" fill-opacity="1.000000" fill-rule="evenodd"/>
		<g opacity="0.200000">
			<path id="Vector" d="M26.58 24.13L12.13 32.37C11.32 32.84 10.6 32.81 10.14 32.38L10.06 32.46L10.14 32.53C10.6 32.95 11.32 32.98 12.13 32.52L26.68 24.22L26.58 24.13Z" fill="#000000" fill-opacity="1.000000" fill-rule="evenodd"/>
		</g>
		<g opacity="0.120000">
			<path id="Vector" d="M31.54 21.29L26.57 24.13L26.66 24.22L31.53 21.44C32.22 21.04 32.57 20.52 32.57 20C32.52 20.47 32.17 20.93 31.54 21.29Z" fill="#000000" fill-opacity="1.000000" fill-rule="evenodd"/>
		</g>
		<g opacity="0.250000">
			<path id="Vector" d="M12.12 7.62L31.54 18.7C32.17 19.05 32.52 19.52 32.58 19.99C32.58 19.47 32.24 18.95 31.54 18.55L12.12 7.47C10.73 6.67 9.6 7.34 9.6 8.94L9.6 9.08C9.6 7.48 10.73 6.83 12.12 7.62Z" fill="#F1F1F1" fill-opacity="1.000000" fill-rule="evenodd"/>
		</g>
	</g>
</svg>
